<?xml version="1.0" encoding="utf-8"?>
<!-- Generator: Adobe Illustrator 22.0.1, SVG Export Plug-In . SVG Version: 6.00 Build 0)  -->
<svg version="1.1" id="Layer_1" xmlns="http://www.w3.org/2000/svg" xmlns:xlink="http://www.w3.org/1999/xlink" x="0px" y="0px"
	 viewBox="0 0 36 70.9" style="enable-background:new 0 0 36 70.9;" xml:space="preserve">
<style type="text/css">
	.st0{fill:none;stroke:#58595B;stroke-miterlimit:10;}
</style>
<g stroke-width="2">
	<path class="st0" d="M23.3,6.3c0,3.1-2.5,5.7-5.7,5.7C14.5,12,12,9.4,12,6.3c0-3.1,2.5-5.7,5.7-5.7C20.8,0.6,23.3,3.2,23.3,6.3"/>
	<path class="st0" d="M10.9,67.1c0,1.8,1.4,3.2,3.2,3.2c1.8,0,3.2-1.4,3.2-3.2l0-26.7h1.4l0,26.7c0,1.8,1.4,3.2,3.2,3.2
		c1.8,0,3.2-1.4,3.2-3.2l0-46.1l0,17c0,3.4,5.8,3.4,5.8,0V20.6c0-3.8-2.2-7.5-6.6-7.5l-12.7,0c-4,0-6.5,3.3-6.5,7.4V38
		c0,3.4,5.9,3.4,5.9,0l0-17L10.9,67.1z"/>
</g>
</svg>
