<?xml version="1.0" encoding="utf-8"?>
<!-- Generator: Adobe Illustrator 22.0.1, SVG Export Plug-In . SVG Version: 6.00 Build 0)  -->
<svg version="1.1" id="Layer_1" xmlns="http://www.w3.org/2000/svg" xmlns:xlink="http://www.w3.org/1999/xlink" x="0px" y="0px"
	 viewBox="0 0 28.2 41.5" style="enable-background:new 0 0 28.2 41.5;" xml:space="preserve">
<style type="text/css">
	.st0{fill:none;stroke:#58595B;stroke-miterlimit:10;}
</style>
<g stroke-width="2">
	<circle class="st0" cx="14.1" cy="6" r="5.1"/>
	<path class="st0" d="M24.8,23.5l-3.6-10.6c-0.3-0.8-1-1.3-1.9-1.4h-0.7h-9H8.9c-0.8,0-1.6,0.6-1.9,1.4L3.4,23.5
		c-0.4,1.1,0.2,2.3,1.3,2.6c1.1,0.4,2.3-0.2,2.6-1.3l1.6-4.7v7.4v10.9c0,1.3,1.1,2.4,2.4,2.4s2.4-1.1,2.4-2.4V27.9
		c0-0.1,0.7-0.1,0.7,0v10.5c0,1.3,1.1,2.4,2.4,2.4s2.4-1.1,2.4-2.4c0,0,0-10.7,0-10.8v-7.4l1.6,4.7c0.4,1.1,1.5,1.6,2.6,1.3
		C24.6,25.8,25.2,24.6,24.8,23.5z"/>
</g>
</svg>
