<?xml version="1.0" encoding="utf-8"?>
<!-- Generator: Adobe Illustrator 22.1.0, SVG Export Plug-In . SVG Version: 6.00 Build 0)  -->
<svg version="1.1" id="Isolation_Mode" xmlns="http://www.w3.org/2000/svg" xmlns:xlink="http://www.w3.org/1999/xlink" x="0px"
	 y="0px" viewBox="0 0 620 620" style="enable-background:new 0 0 620 620;" xml:space="preserve">
<style type="text/css">
	.st0{fill:#aaaaaa;}
</style>
<g>
	<path class="st0" d="M570,618.9H50c-4.7,0-8.7-3.4-9.4-8.1c-0.5-3.3-11.5-80.9,38.7-116.7c20.2-14.4,44.6-19.8,68.1-25
		c34.2-7.6,66.4-14.7,90.5-46.6c0.3-0.3,9.8-15-20.2-51.7c-48.3-59-37.3-152.4-32.7-179.6c9.5-57,63.3-100.1,125-100.1
		c61.8,0,115.5,43,125,100.1c4.5,27.2,15.6,120.5-32.7,179.6c-30.1,36.7-20.5,51.4-20.4,51.5c24.2,32.1,56.5,39.3,90.6,46.9
		c23.6,5.2,47.9,10.6,68.1,25c50.2,35.7,39.2,113.4,38.7,116.7C578.7,615.4,574.7,618.9,570,618.9z"/>
</g>
</svg>
