<?xml version="1.0" encoding="utf-8"?>
<!-- Generator: Adobe Illustrator 22.0.1, SVG Export Plug-In . SVG Version: 6.00 Build 0)  -->
<svg version="1.1" id="Layer_1" xmlns="http://www.w3.org/2000/svg" xmlns:xlink="http://www.w3.org/1999/xlink" x="0px" y="0px"
	 viewBox="0 0 36 36" style="enable-background:new 0 0 36 36;" xml:space="preserve">
<style type="text/css">
	.st0{fill:none;stroke:#9F9C9D;stroke-linecap:round;stroke-linejoin:round;stroke-miterlimit:10;}
	.st1{fill:none;stroke:#9F9C9D;stroke-miterlimit:10;}
</style>
<g stroke-width="2">
	<path class="st0" d="M21.2,28.9c0,1.7-1.4,3.1-3.2,3.1s-3.2-1.4-3.2-3.1"/>
	<line class="st0" x1="18" y1="5.4" x2="18" y2="4"/>
	<path class="st1" d="M17.7,5.9c-2,0.1-3.8,1-5,2.3c-1.4,1.4-2.2,3.3-2.6,5.3l-1.4,7.6c-0.3,1.8-1.2,2.4-2,2.9
		c-0.4,0.3-0.9,0.6-1.2,1c-0.4,0.4-0.6,1-0.6,1.7c0,1.2,0.9,2.1,2.1,2.1h22.2c1.2,0,2.1-0.9,2.1-2.1c0-0.8-0.2-1.3-0.6-1.7
		c-0.4-0.4-0.8-0.7-1.2-1c-0.9-0.6-1.7-1.1-2-2.9L26,13.5c-0.4-2-1.2-3.9-2.6-5.3c-1.3-1.3-3-2.2-5-2.3H17.7z"/>
</g>
</svg>
