<?xml version="1.0" encoding="utf-8"?>
<!-- Generator: Adobe Illustrator 22.0.1, SVG Export Plug-In . SVG Version: 6.00 Build 0)  -->
<svg version="1.1" id="Layer_1" xmlns="http://www.w3.org/2000/svg" xmlns:xlink="http://www.w3.org/1999/xlink" x="0px" y="0px"
	 viewBox="0 0 425 85" style="enable-background:new 0 0 425 85;" xml:space="preserve">
<style type="text/css">
	.st0{fill:#84BAB6;}
</style>
<g>
	<path class="st0" d="M27.3,67.9h-2.2V40.7h27.2c0.5,0,12.1-0.5,12.1-12.1S53,16.8,52.6,16.8H13.2v-2.2h39.4c0.1,0,14,0.2,14,14
		S52.5,42.8,52.4,42.9H27.3C27.3,42.9,27.3,67.9,27.3,67.9z"/>
	<path class="st0" d="M111,67.9L83.6,40.7h28.8c0.5,0,12.1-0.5,12.1-12.1s-11.4-11.8-11.8-11.8H73.3v-2.2h39.4c0.1,0,14,0.2,14,14
		s-14.1,14.2-14.2,14.2H89l25.3,25H111V67.9z"/>
	<polygon class="st0" points="287.6,67.9 234.1,67.9 234.1,14.6 236.3,14.6 236.3,65.7 287.6,65.7 	"/>
	<rect x="294.2" y="14.6" class="st0" width="52.2" height="2.2"/>
	<rect x="294.2" y="40.2" class="st0" width="52.2" height="2.2"/>
	<rect x="294.2" y="65.7" class="st0" width="52.2" height="2.2"/>
	<rect x="359.6" y="14.6" class="st0" width="52.2" height="2.2"/>
	<rect x="359.6" y="40.2" class="st0" width="52.2" height="2.2"/>
	<rect x="359.6" y="65.7" class="st0" width="52.2" height="2.2"/>
	<rect x="139.8" y="14.6" class="st0" width="2.2" height="53.3"/>
	<rect x="218.8" y="14.6" class="st0" width="2.2" height="53.3"/>
	<polygon class="st0" points="180.4,70.4 152.5,14.6 155,14.6 180.4,65.5 205.8,14.6 208.2,14.6 	"/>
</g>
</svg>
